<svg width="20" height="14" viewBox="0 0 20 14" fill="none" xmlns="http://www.w3.org/2000/svg">
<path d="M12.5 7C14.3417 7 15.8333 5.50833 15.8333 3.66667C15.8333 1.825 14.3417 0.333333 12.5 0.333333C10.6583 0.333333 9.16667 1.825 9.16667 3.66667C9.16667 5.50833 10.6583 7 12.5 7ZM12.5 2C13.4167 2 14.1667 2.75 14.1667 3.66667C14.1667 4.58333 13.4167 5.33333 12.5 5.33333C11.5833 5.33333 10.8333 4.58333 10.8333 3.66667C10.8333 2.75 11.5833 2 12.5 2ZM12.5 8.66667C10.275 8.66667 5.83333 9.78333 5.83333 12V13.6667H19.1667V12C19.1667 9.78333 14.725 8.66667 12.5 8.66667ZM7.5 12C7.68333 11.4 10.2583 10.3333 12.5 10.3333C14.75 10.3333 17.3333 11.4083 17.5 12H7.5ZM5 9.5V7H7.5V5.33333H5V2.83333H3.33333V5.33333H0.833333V7H3.33333V9.5H5Z" fill="#8491A5"/>
</svg>
