<svg width="15" height="16" viewBox="0 0 15 16" fill="none" xmlns="http://www.w3.org/2000/svg">
<path d="M10.8333 0C11.712 0 12.4318 0.679898 12.4954 1.54228L12.5 1.66667V5.83333H13.75C14.3997 5.83333 14.9337 6.32909 14.9943 6.96295L15 7.08333V13.3333C15 14.6648 13.9593 15.7531 12.6469 15.8291L12.5 15.8333H1.66667C0.788031 15.8333 0.0681957 15.1535 0.00457148 14.2911L0 14.1667V1.66667C0 0.788031 0.679898 0.0681957 1.54228 0.00457148L1.66667 0H10.8333ZM13.3333 7.5H12.5V14.1667C12.9602 14.1667 13.3333 13.7936 13.3333 13.3333V7.5ZM10.8333 1.66667H1.66667V14.1667H10.8333V1.66667ZM6.66667 8.33333C7.12692 8.33333 7.5 8.70642 7.5 9.16667C7.5 9.59404 7.17831 9.94626 6.76385 9.99439L6.66667 10H4.16667C3.70643 10 3.33333 9.62692 3.33333 9.16667C3.33333 8.73929 3.65504 8.38708 4.06948 8.33894L4.16667 8.33333H6.66667ZM8.33333 4.16667C8.79358 4.16667 9.16667 4.53977 9.16667 5C9.16667 5.46023 8.79358 5.83333 8.33333 5.83333H4.16667C3.70643 5.83333 3.33333 5.46023 3.33333 5C3.33333 4.53977 3.70643 4.16667 4.16667 4.16667H8.33333Z" fill="#007AFF"/>
</svg>
