<svg width="15" height="17" viewBox="0 0 15 17" fill="none" xmlns="http://www.w3.org/2000/svg">
<path d="M13.3333 1.66667H12.5V0H10.8333V1.66667H4.16667V0H2.5V1.66667H1.66667C0.75 1.66667 0 2.41667 0 3.33333V15C0 15.9167 0.75 16.6667 1.66667 16.6667H13.3333C14.25 16.6667 15 15.9167 15 15V3.33333C15 2.41667 14.25 1.66667 13.3333 1.66667ZM13.3333 15H1.66667V6.66667H13.3333V15ZM1.66667 5V3.33333H13.3333V5H1.66667ZM3.33333 8.33333H11.6667V10H3.33333V8.33333ZM3.33333 11.6667H9.16667V13.3333H3.33333V11.6667Z" fill="#007AFF"/>
</svg>
