<svg width="32" height="32" viewBox="0 0 32 32" fill="none" xmlns="http://www.w3.org/2000/svg">
<rect width="32" height="32" rx="16" fill="#FF6636"/>
<path d="M10.8393 19.0632C10.0938 17.8066 9.83277 16.321 10.1051 14.8854C10.3775 13.4499 11.1645 12.1632 12.3184 11.2669C13.4724 10.3706 14.9138 9.92632 16.3721 10.0176C17.8304 10.1088 19.2052 10.7293 20.2384 11.7625C21.2715 12.7957 21.892 14.1705 21.9833 15.6287C22.0745 17.087 21.6303 18.5285 20.734 19.6824C19.8377 20.8363 18.551 21.6234 17.1154 21.8957C15.6799 22.1681 14.1943 21.907 12.9377 21.1616L12.9377 21.1615L10.8654 21.7536C10.7796 21.7781 10.6889 21.7792 10.6026 21.7568C10.5163 21.7345 10.4375 21.6894 10.3745 21.6264C10.3114 21.5633 10.2664 21.4846 10.244 21.3982C10.2216 21.3119 10.2228 21.2212 10.2473 21.1355L10.8393 19.0632L10.8393 19.0632Z" fill="white"/>
<path d="M16 16.75C16.4142 16.75 16.75 16.4142 16.75 16C16.75 15.5858 16.4142 15.25 16 15.25C15.5858 15.25 15.25 15.5858 15.25 16C15.25 16.4142 15.5858 16.75 16 16.75Z" fill="#FF6636"/>
<path d="M13 16.75C13.4142 16.75 13.75 16.4142 13.75 16C13.75 15.5858 13.4142 15.25 13 15.25C12.5858 15.25 12.25 15.5858 12.25 16C12.25 16.4142 12.5858 16.75 13 16.75Z" fill="#FF6636"/>
<path d="M19 16.75C19.4142 16.75 19.75 16.4142 19.75 16C19.75 15.5858 19.4142 15.25 19 15.25C18.5858 15.25 18.25 15.5858 18.25 16C18.25 16.4142 18.5858 16.75 19 16.75Z" fill="#FF6636"/>
</svg>
