<svg width="108" height="20" viewBox="0 0 108 20" fill="none" xmlns="http://www.w3.org/2000/svg">
<path d="M10.3446 14.901L14.2849 17.3974C14.7886 17.7165 15.4139 17.2419 15.2644 16.654L14.126 12.1756C14.0939 12.0509 14.0977 11.9197 14.137 11.797C14.1762 11.6743 14.2492 11.5652 14.3477 11.4822L17.8811 8.54132C18.3453 8.1549 18.1057 7.38439 17.5092 7.34567L12.8949 7.0462C12.7706 7.03732 12.6514 6.99332 12.5511 6.91931C12.4509 6.84531 12.3737 6.74435 12.3286 6.62819L10.6076 2.29436C10.5609 2.17106 10.4777 2.06492 10.3692 1.99002C10.2606 1.91511 10.1319 1.875 10 1.875C9.86813 1.875 9.73938 1.91511 9.63085 1.99002C9.52232 2.06492 9.43914 2.17106 9.39236 2.29436L7.6714 6.62819C7.62631 6.74435 7.54914 6.84531 7.4489 6.91931C7.34865 6.99332 7.22944 7.03732 7.10515 7.0462L2.49078 7.34567C1.89429 7.38439 1.65466 8.1549 2.11894 8.54132L5.65232 11.4822C5.75079 11.5652 5.82383 11.6743 5.86305 11.797C5.90226 11.9197 5.90606 12.0509 5.874 12.1756L4.81824 16.3288C4.63889 17.0343 5.38929 17.6038 5.99369 17.2209L9.65539 14.901C9.75837 14.8354 9.87792 14.8006 10 14.8006C10.1221 14.8006 10.2416 14.8354 10.3446 14.901Z" fill="#FD8E1F"/>
<path d="M32.3446 14.901L36.2849 17.3974C36.7886 17.7165 37.4139 17.2419 37.2644 16.654L36.126 12.1756C36.0939 12.0509 36.0977 11.9197 36.137 11.797C36.1762 11.6743 36.2492 11.5652 36.3477 11.4822L39.8811 8.54132C40.3453 8.1549 40.1057 7.38439 39.5092 7.34567L34.8949 7.0462C34.7706 7.03732 34.6514 6.99332 34.5511 6.91931C34.4509 6.84531 34.3737 6.74435 34.3286 6.62819L32.6076 2.29436C32.5609 2.17106 32.4777 2.06492 32.3692 1.99002C32.2606 1.91511 32.1319 1.875 32 1.875C31.8681 1.875 31.7394 1.91511 31.6309 1.99002C31.5223 2.06492 31.4391 2.17106 31.3924 2.29436L29.6714 6.62819C29.6263 6.74435 29.5491 6.84531 29.4489 6.91931C29.3486 6.99332 29.2294 7.03732 29.1052 7.0462L24.4908 7.34567C23.8943 7.38439 23.6547 8.1549 24.1189 8.54132L27.6523 11.4822C27.7508 11.5652 27.8238 11.6743 27.863 11.797C27.9023 11.9197 27.9061 12.0509 27.874 12.1756L26.8182 16.3288C26.6389 17.0343 27.3893 17.6038 27.9937 17.2209L31.6554 14.901C31.7584 14.8354 31.8779 14.8006 32 14.8006C32.1221 14.8006 32.2416 14.8354 32.3446 14.901Z" fill="#FD8E1F"/>
<path d="M54.3446 14.901L58.2849 17.3974C58.7886 17.7165 59.4139 17.2419 59.2644 16.654L58.126 12.1756C58.0939 12.0509 58.0977 11.9197 58.137 11.797C58.1762 11.6743 58.2492 11.5652 58.3477 11.4822L61.8811 8.54132C62.3453 8.1549 62.1057 7.38439 61.5092 7.34567L56.8949 7.0462C56.7706 7.03732 56.6514 6.99332 56.5511 6.91931C56.4509 6.84531 56.3737 6.74435 56.3286 6.62819L54.6076 2.29436C54.5609 2.17106 54.4777 2.06492 54.3692 1.99002C54.2606 1.91511 54.1319 1.875 54 1.875C53.8681 1.875 53.7394 1.91511 53.6309 1.99002C53.5223 2.06492 53.4391 2.17106 53.3924 2.29436L51.6714 6.62819C51.6263 6.74435 51.5491 6.84531 51.4489 6.91931C51.3486 6.99332 51.2294 7.03732 51.1052 7.0462L46.4908 7.34567C45.8943 7.38439 45.6547 8.1549 46.1189 8.54132L49.6523 11.4822C49.7508 11.5652 49.8238 11.6743 49.863 11.797C49.9023 11.9197 49.9061 12.0509 49.874 12.1756L48.8182 16.3288C48.6389 17.0343 49.3893 17.6038 49.9937 17.2209L53.6554 14.901C53.7584 14.8354 53.8779 14.8006 54 14.8006C54.1221 14.8006 54.2416 14.8354 54.3446 14.901Z" fill="#FD8E1F"/>
<path d="M76.3446 14.901L80.2849 17.3974C80.7886 17.7165 81.4139 17.2419 81.2644 16.654L80.126 12.1756C80.0939 12.0509 80.0977 11.9197 80.137 11.797C80.1762 11.6743 80.2492 11.5652 80.3477 11.4822L83.8811 8.54132C84.3453 8.1549 84.1057 7.38439 83.5092 7.34567L78.8949 7.0462C78.7706 7.03732 78.6514 6.99332 78.5511 6.91931C78.4509 6.84531 78.3737 6.74435 78.3286 6.62819L76.6076 2.29436C76.5609 2.17106 76.4777 2.06492 76.3692 1.99002C76.2606 1.91511 76.1319 1.875 76 1.875C75.8681 1.875 75.7394 1.91511 75.6309 1.99002C75.5223 2.06492 75.4391 2.17106 75.3924 2.29436L73.6714 6.62819C73.6263 6.74435 73.5491 6.84531 73.4489 6.91931C73.3486 6.99332 73.2294 7.03732 73.1052 7.0462L68.4908 7.34567C67.8943 7.38439 67.6547 8.1549 68.1189 8.54132L71.6523 11.4822C71.7508 11.5652 71.8238 11.6743 71.863 11.797C71.9023 11.9197 71.9061 12.0509 71.874 12.1756L70.8182 16.3288C70.6389 17.0343 71.3893 17.6038 71.9937 17.2209L75.6554 14.901C75.7584 14.8354 75.8779 14.8006 76 14.8006C76.1221 14.8006 76.2416 14.8354 76.3446 14.901Z" fill="#FD8E1F"/>
<path d="M98.3446 14.901L102.285 17.3974C102.789 17.7165 103.414 17.2419 103.264 16.654L102.126 12.1756C102.094 12.0509 102.098 11.9197 102.137 11.797C102.176 11.6743 102.249 11.5652 102.348 11.4822L105.881 8.54132C106.345 8.1549 106.106 7.38439 105.509 7.34568L100.895 7.0462C100.771 7.03732 100.651 6.99332 100.551 6.91931C100.451 6.84531 100.374 6.74435 100.329 6.62819L98.6076 2.29436C98.5609 2.17106 98.4777 2.06492 98.3692 1.99002C98.2606 1.91511 98.1319 1.875 98 1.875C97.8681 1.875 97.7394 1.91511 97.6309 1.99002C97.5223 2.06492 97.4391 2.17106 97.3924 2.29436L95.6714 6.62819C95.6263 6.74435 95.5491 6.84531 95.4489 6.91931C95.3486 6.99332 95.2294 7.03732 95.1052 7.0462L90.4908 7.34568C89.8943 7.38439 89.6547 8.1549 90.1189 8.54132L93.6523 11.4822C93.7508 11.5652 93.8238 11.6743 93.863 11.797C93.9023 11.9197 93.9061 12.0509 93.874 12.1756L92.8182 16.3288C92.6389 17.0343 93.3893 17.6038 93.9937 17.2209L97.6554 14.901C97.7584 14.8354 97.8779 14.8006 98 14.8006C98.1221 14.8006 98.2416 14.8354 98.3446 14.901V14.901Z" stroke="#FD8E1F" stroke-linecap="round" stroke-linejoin="round"/>
<mask id="mask0_2821_83863" style="mask-type:alpha" maskUnits="userSpaceOnUse" x="88" y="0" width="10" height="21">
<path d="M98 0.5H88V20.5H98V0.5Z" fill="white"/>
</mask>
<g mask="url(#mask0_2821_83863)">
<path d="M98.3446 14.901L102.285 17.3974C102.789 17.7165 103.414 17.2419 103.264 16.654L102.126 12.1756C102.094 12.0509 102.098 11.9197 102.137 11.797C102.176 11.6743 102.249 11.5652 102.348 11.4822L105.881 8.54132C106.345 8.1549 106.106 7.38439 105.509 7.34567L100.895 7.0462C100.771 7.03732 100.651 6.99332 100.551 6.91931C100.451 6.84531 100.374 6.74435 100.329 6.62819L98.6076 2.29436C98.5609 2.17106 98.4777 2.06492 98.3692 1.99002C98.2606 1.91511 98.1319 1.875 98 1.875C97.8681 1.875 97.7394 1.91511 97.6309 1.99002C97.5223 2.06492 97.4391 2.17106 97.3924 2.29436L95.6714 6.62819C95.6263 6.74435 95.5491 6.84531 95.4489 6.91931C95.3486 6.99332 95.2294 7.03732 95.1052 7.0462L90.4908 7.34567C89.8943 7.38439 89.6547 8.1549 90.1189 8.54132L93.6523 11.4822C93.7508 11.5652 93.8238 11.6743 93.863 11.797C93.9023 11.9197 93.9061 12.0509 93.874 12.1756L92.8182 16.3288C92.6389 17.0343 93.3893 17.6038 93.9937 17.2209L97.6554 14.901C97.7584 14.8354 97.8779 14.8006 98 14.8006C98.1221 14.8006 98.2416 14.8354 98.3446 14.901Z" fill="#FD8E1F"/>
</g>
</svg>
