<svg width="32" height="32" viewBox="0 0 32 32" fill="none" xmlns="http://www.w3.org/2000/svg">
<rect width="32" height="32" rx="16" fill="#FF6636"/>
<path opacity="0.2" d="M19.5005 13H10.5005C10.2243 13 10.0005 13.2239 10.0005 13.5V20.5C10.0005 20.7761 10.2243 21 10.5005 21H19.5005C19.7766 21 20.0005 20.7761 20.0005 20.5V13.5C20.0005 13.2239 19.7766 13 19.5005 13Z" fill="white"/>
<path d="M19.5005 13H10.5005C10.2243 13 10.0005 13.2239 10.0005 13.5V20.5C10.0005 20.7761 10.2243 21 10.5005 21H19.5005C19.7766 21 20.0005 20.7761 20.0005 20.5V13.5C20.0005 13.2239 19.7766 13 19.5005 13Z" fill="white"/>
<path d="M12.001 11H21.501C21.6336 11 21.7608 11.0527 21.8545 11.1464C21.9483 11.2402 22.001 11.3674 22.001 11.5V19" stroke="white" stroke-width="1.2" stroke-linecap="round" stroke-linejoin="round"/>
</svg>
