<svg width="17" height="18" viewBox="0 0 17 18" fill="none" xmlns="http://www.w3.org/2000/svg">
<path d="M1.66667 15H7.5V16.6667H1.66667C0.741667 16.6667 0 15.925 0 15V1.66667C0 1.22464 0.175595 0.800716 0.488155 0.488155C0.800716 0.175595 1.22464 0 1.66667 0H11.6667C12.1087 0 12.5326 0.175595 12.8452 0.488155C13.1577 0.800716 13.3333 1.22464 13.3333 1.66667V8.78333L12.0833 8.1L11.6667 8.33333V1.66667H7.5V8.33333L5.41667 6.45833L3.33333 8.33333V1.66667H1.66667V15ZM16.6667 12.5L12.0833 10L7.5 12.5L12.0833 15L16.6667 12.5ZM9.16667 14.2417V15.9083L12.0833 17.5L15 15.9083V14.2417L12.0833 15.8333L9.16667 14.2417Z" fill="#007AFF"/>
</svg>
