<svg width="20" height="21" viewBox="0 0 20 21" fill="none" xmlns="http://www.w3.org/2000/svg">
<g clip-path="url(#clip0_1_104)">
<path d="M3.33333 1.5H5.83333C7.122 1.5 8.16667 2.54467 8.16667 3.83333V6.33333C8.16667 7.622 7.122 8.66667 5.83333 8.66667H3.33333C2.04467 8.66667 1 7.622 1 6.33333V3.83333C1 2.54467 2.04467 1.5 3.33333 1.5Z" stroke="#007AFF" stroke-width="2"/>
<path d="M14.1667 1.5H16.6667C17.9553 1.5 19 2.54467 19 3.83333V6.33333C19 7.622 17.9553 8.66667 16.6667 8.66667H14.1667C12.878 8.66667 11.8333 7.622 11.8333 6.33333V3.83333C11.8333 2.54467 12.878 1.5 14.1667 1.5Z" stroke="#007AFF" stroke-width="2"/>
<path d="M3.33333 12.3333H5.83333C7.122 12.3333 8.16667 13.378 8.16667 14.6667V17.1667C8.16667 18.4553 7.122 19.5 5.83333 19.5H3.33333C2.04467 19.5 1 18.4553 1 17.1667V14.6667C1 13.378 2.04467 12.3333 3.33333 12.3333Z" stroke="#007AFF" stroke-width="2"/>
<path d="M14.1667 12.3333H16.6667C17.9553 12.3333 19 13.378 19 14.6667V17.1667C19 18.4553 17.9553 19.5 16.6667 19.5H14.1667C12.878 19.5 11.8333 18.4553 11.8333 17.1667V14.6667C11.8333 13.378 12.878 12.3333 14.1667 12.3333Z" stroke="#007AFF" stroke-width="2"/>
</g>
<defs>
<clipPath id="clip0_1_104">
<rect width="20" height="20" fill="white" transform="translate(0 0.5)"/>
</clipPath>
</defs>
</svg>
