<svg width="17" height="16" viewBox="0 0 17 16" fill="none" xmlns="http://www.w3.org/2000/svg">
<path d="M7.31017 0.351081C7.87439 -0.0877703 8.65035 -0.115199 9.24104 0.268797L9.35658 0.351081L16.3431 5.785C16.9445 6.25282 16.6515 7.19482 15.9277 7.27251L15.8309 7.27763H15.0001V13.9443C15.0001 14.823 14.3201 15.5428 13.4578 15.6064L13.3334 15.611H3.33338C2.45474 15.611 1.7349 14.9311 1.67128 14.0687L1.66671 13.9443V7.27763H0.835809C0.0746687 7.27763 -0.273772 6.35464 0.250329 5.84854L0.323676 5.785L7.31017 0.351081ZM8.33342 1.66667L3.02122 5.79835C3.21166 5.95266 3.33338 6.18844 3.33338 6.45263V13.9443H5.83338V9.77763C5.83338 8.39688 6.95267 7.27763 8.33342 7.27763C9.71408 7.27763 10.8334 8.39688 10.8334 9.77763V13.9443H13.3334V6.45263C13.3334 6.18842 13.4551 5.95266 13.6455 5.79835L8.33342 1.66667ZM8.33342 8.9443C7.87317 8.9443 7.50008 9.31738 7.50008 9.77763V13.9443H9.16675V9.77763C9.16675 9.31738 8.79358 8.9443 8.33342 8.9443Z" fill="#8491A5"/>
</svg>
