<svg width="13" height="15" viewBox="0 0 13 15" fill="none" xmlns="http://www.w3.org/2000/svg">
<path d="M6.1665 12.1663C6.1665 12.8997 6.3665 13.5797 6.7065 14.1663H1.49984C0.759837 14.1663 0.166504 13.573 0.166504 12.833V2.16634C0.166504 1.81272 0.30698 1.47358 0.557028 1.22353C0.807077 0.973484 1.14622 0.833008 1.49984 0.833008H2.1665V5.49967L3.83317 4.49967L5.49984 5.49967V0.833008H9.49984C9.85346 0.833008 10.1926 0.973484 10.4426 1.22353C10.6927 1.47358 10.8332 1.81272 10.8332 2.16634V8.22634C10.6132 8.19301 10.3932 8.16634 10.1665 8.16634C7.95984 8.16634 6.1665 9.95967 6.1665 12.1663ZM12.8332 12.1663L10.8332 10.1663V11.4997H8.1665V12.833H10.8332V14.1663L12.8332 12.1663Z" fill="#F0F3FA"/>
</svg>
