<svg width="17" height="16" viewBox="0 0 17 16" fill="none" xmlns="http://www.w3.org/2000/svg">
<path d="M14.1667 0C15.5474 0 16.6667 1.11929 16.6667 2.5V10.8333C16.6667 12.2141 15.5474 13.3333 14.1667 13.3333H4.44444L1.66667 15.4167C0.979967 15.9317 0 15.4418 0 14.5833V2.5C0 1.11929 1.11929 0 2.5 0H14.1667ZM14.1667 1.66667H2.5C2.03977 1.66667 1.66667 2.03977 1.66667 2.5V13.3333L3.44444 12C3.73294 11.7837 4.08383 11.6667 4.44444 11.6667H14.1667C14.6269 11.6667 15 11.2936 15 10.8333V2.5C15 2.03977 14.6269 1.66667 14.1667 1.66667ZM7.5 7.5C7.96025 7.5 8.33333 7.87308 8.33333 8.33333C8.33333 8.76071 8.01164 9.11293 7.59719 9.16106L7.5 9.16667H5C4.53977 9.16667 4.16667 8.79358 4.16667 8.33333C4.16667 7.90596 4.48837 7.55374 4.90282 7.50561L5 7.5H7.5ZM11.6667 4.16667C12.1269 4.16667 12.5 4.53977 12.5 5C12.5 5.46023 12.1269 5.83333 11.6667 5.83333H5C4.53977 5.83333 4.16667 5.46023 4.16667 5C4.16667 4.53977 4.53977 4.16667 5 4.16667H11.6667Z" fill="#007AFF"/>
</svg>
