<svg width="72" height="72" viewBox="0 0 72 72" fill="none" xmlns="http://www.w3.org/2000/svg">
<rect width="72" height="72" rx="36" fill="white"/>
<path d="M44.3889 35.36L30.8911 27.111C30.7774 27.0415 30.6473 27.0036 30.514 27.0011C30.3808 26.9986 30.2493 27.0317 30.1331 27.0968C30.0169 27.162 29.9202 27.257 29.8528 27.3719C29.7855 27.4869 29.75 27.6177 29.75 27.751V44.2488C29.75 44.3821 29.7855 44.5129 29.8528 44.6279C29.9202 44.7429 30.0169 44.8378 30.1331 44.903C30.2493 44.9682 30.3808 45.0012 30.514 44.9987C30.6473 44.9962 30.7774 44.9583 30.8911 44.8888L44.3889 36.6399C44.4985 36.5729 44.5891 36.4788 44.652 36.3668C44.7148 36.2547 44.7478 36.1284 44.7478 35.9999C44.7478 35.8714 44.7148 35.7451 44.652 35.633C44.5891 35.521 44.4985 35.427 44.3889 35.36Z" fill="#FF6636"/>
</svg>
