<svg width="15" height="17" viewBox="0 0 15 17" fill="none" xmlns="http://www.w3.org/2000/svg">
<path d="M13.3333 1.66667H9.85C9.5 0.7 8.58333 0 7.5 0C6.41667 0 5.5 0.7 5.15 1.66667H1.66667C0.75 1.66667 0 2.41667 0 3.33333V15C0 15.9167 0.75 16.6667 1.66667 16.6667H13.3333C14.25 16.6667 15 15.9167 15 15V3.33333C15 2.41667 14.25 1.66667 13.3333 1.66667ZM7.5 1.45833C7.68333 1.45833 7.84167 1.54167 7.95833 1.66667C8.05833 1.775 8.125 1.925 8.125 2.08333C8.125 2.425 7.84167 2.70833 7.5 2.70833C7.15833 2.70833 6.875 2.425 6.875 2.08333C6.875 1.925 6.94167 1.775 7.04167 1.66667C7.15833 1.54167 7.31667 1.45833 7.5 1.45833ZM13.3333 15H1.66667V3.33333H13.3333V15ZM7.5 4.16667C6.125 4.16667 5 5.29167 5 6.66667C5 8.04167 6.125 9.16667 7.5 9.16667C8.875 9.16667 10 8.04167 10 6.66667C10 5.29167 8.875 4.16667 7.5 4.16667ZM7.5 7.5C7.04167 7.5 6.66667 7.125 6.66667 6.66667C6.66667 6.20833 7.04167 5.83333 7.5 5.83333C7.95833 5.83333 8.33333 6.20833 8.33333 6.66667C8.33333 7.125 7.95833 7.5 7.5 7.5ZM2.5 12.8917V14.1667H12.5V12.8917C12.5 10.8083 9.19167 9.90833 7.5 9.90833C5.80833 9.90833 2.5 10.8 2.5 12.8917ZM4.425 12.5C5 12.0333 6.40833 11.5667 7.5 11.5667C8.59167 11.5667 10.0083 12.0333 10.575 12.5H4.425Z" fill="#007AFF"/>
</svg>
