<svg width="18" height="13" viewBox="0 0 18 13" fill="none" xmlns="http://www.w3.org/2000/svg">
<path fill-rule="evenodd" clip-rule="evenodd" d="M16.0392 0.385481C16.8101 0.593122 17.4181 1.20094 17.6256 1.97204C18.0112 3.38048 17.9964 6.31629 17.9964 6.31629C17.9964 6.31629 17.9964 9.23713 17.6257 10.6457C17.4181 11.4167 16.8103 12.0246 16.0392 12.2321C14.6306 12.6029 8.99642 12.6029 8.99642 12.6029C8.99642 12.6029 3.37694 12.6029 1.95367 12.2174C1.18257 12.0098 0.57475 11.4018 0.36711 10.6309C-0.00354004 9.23713 -0.00354004 6.30146 -0.00354004 6.30146C-0.00354004 6.30146 -0.00354004 3.38048 0.36711 1.97204C0.574613 1.20108 1.1974 0.57829 1.95353 0.370787C3.36211 0 8.99629 0 8.99629 0C8.99629 0 14.6306 0 16.0392 0.385481ZM11.8878 6.30154L7.20251 9.00006V3.60303L11.8878 6.30154Z" fill="white"/>
</svg>
